<svg width="33" height="33" viewBox="0 0 33 33" fill="none" xmlns="http://www.w3.org/2000/svg">
<path d="M16.3516 2.80444C8.55156 2.80444 2.35156 9.00444 2.35156 16.8044C2.35156 24.6044 8.55156 30.8044 16.3516 30.8044C24.1516 30.8044 30.3516 24.6044 30.3516 16.8044C30.3516 9.00444 24.1516 2.80444 16.3516 2.80444ZM16.3516 28.8044C9.75156 28.8044 4.35156 23.4044 4.35156 16.8044C4.35156 10.2044 9.75156 4.80444 16.3516 4.80444C22.9516 4.80444 28.3516 10.2044 28.3516 16.8044C28.3516 23.4044 22.9516 28.8044 16.3516 28.8044Z" fill="#667085"/>
<path d="M21.7516 23.8044L16.3516 18.4044L10.9516 23.8044L9.35156 22.2044L14.7516 16.8044L9.35156 11.4044L10.9516 9.80444L16.3516 15.2044L21.7516 9.80444L23.3516 11.4044L17.9516 16.8044L23.3516 22.2044L21.7516 23.8044Z" fill="#667085"/>
</svg>
