<svg width="56" height="57" viewBox="0 0 56 57" fill="none" xmlns="http://www.w3.org/2000/svg">
<path fill-rule="evenodd" clip-rule="evenodd" d="M22.7921 51.933C20.3734 51.3977 18.0529 50.4888 15.9141 49.239L16.0381 46.814C16.2071 43.507 13.6541 40.964 10.3561 41.132L7.67611 41.269C6.40457 39.2514 5.44256 37.0547 4.82211 34.752L6.92611 32.852C9.38411 30.634 9.37811 27.03 6.92611 24.817L4.68311 22.792C5.23257 20.5398 6.10744 18.3798 7.28011 16.38L10.3561 16.537C13.6631 16.706 16.2061 14.153 16.0381 10.855L15.8801 7.77998C17.8793 6.6075 20.0386 5.73263 22.2901 5.18298L24.3161 7.42598C26.5361 9.88398 30.1391 9.87798 32.3521 7.42598L34.2521 5.32198C36.5544 5.94222 38.7508 6.90389 40.7681 8.17498L40.6311 10.855C40.4621 14.163 43.0151 16.706 46.3131 16.538L48.7381 16.414C49.9879 18.5528 50.8968 20.8733 51.4321 23.292L49.7421 24.817C47.2851 27.037 47.2921 30.64 49.7421 32.853L51.3031 34.261C50.6948 36.7287 49.6962 39.0833 48.3451 41.236L46.3131 41.132C43.0061 40.963 40.4631 43.516 40.6311 46.814L40.7351 48.846C38.5825 50.1971 36.2278 51.1957 33.7601 51.804L32.3521 50.244C30.1321 47.786 26.5291 47.792 24.3161 50.244L22.7921 51.933ZM28.0001 38.5C33.5231 38.5 38.0001 34.023 38.0001 28.5C38.0001 22.977 33.5231 18.5 28.0001 18.5C22.4771 18.5 18.0001 22.977 18.0001 28.5C18.0001 34.023 22.4771 38.5 28.0001 38.5Z" fill="#1572D3"/>
</svg>
