<svg width="40" height="42" viewBox="0 0 40 42" fill="none" xmlns="http://www.w3.org/2000/svg">
<path d="M37.5022 21.4633C37.5022 19.9885 37.3831 18.9122 37.1252 17.7961H20.3594V24.4529H30.2006C30.0022 26.1072 28.9308 28.5985 26.5498 30.2726L26.5164 30.4954L31.8175 34.6206L32.1847 34.6574C35.5577 31.5283 37.5022 26.9243 37.5022 21.4633Z" fill="#4285F4"/>
<path d="M20.3567 39.0024C25.178 39.0024 29.2256 37.4079 32.182 34.6575L26.5471 30.2727C25.0392 31.329 23.0153 32.0664 20.3567 32.0664C15.6345 32.0664 11.6266 28.9374 10.1979 24.6124L9.98848 24.6303L4.47638 28.9154L4.4043 29.1167C7.34076 34.9763 13.3725 39.0024 20.3567 39.0024Z" fill="#34A853"/>
<path d="M10.2003 24.6127C9.8233 23.4966 9.60513 22.3007 9.60513 21.065C9.60513 19.8293 9.82331 18.6335 10.1804 17.5174L10.1705 17.2797L4.58927 12.9258L4.40667 13.013C3.1964 15.4446 2.50195 18.1751 2.50195 21.065C2.50195 23.955 3.1964 26.6854 4.40667 29.1169L10.2003 24.6127Z" fill="#FBBC05"/>
<path d="M20.3567 10.0632C23.7099 10.0632 25.9717 11.5182 27.2615 12.734L32.3012 7.79119C29.206 4.90127 25.1781 3.12744 20.3567 3.12744C13.3726 3.12744 7.34078 7.15338 4.4043 13.0129L10.1781 17.5173C11.6266 13.1924 15.6345 10.0632 20.3567 10.0632Z" fill="#EB4335"/>
</svg>
