<svg width="24" height="24" viewBox="0 0 24 24" fill="none" xmlns="http://www.w3.org/2000/svg">
<path d="M11.0002 5V16.17L6.12016 11.29C5.73016 10.9 5.09016 10.9 4.70016 11.29C4.60746 11.3825 4.53391 11.4924 4.48373 11.6134C4.43354 11.7343 4.40771 11.864 4.40771 11.995C4.40771 12.126 4.43354 12.2557 4.48373 12.3766C4.53391 12.4976 4.60746 12.6075 4.70016 12.7L11.2902 19.29C11.6802 19.68 12.3102 19.68 12.7002 19.29L19.2902 12.7C19.3827 12.6074 19.4562 12.4975 19.5063 12.3765C19.5564 12.2556 19.5822 12.1259 19.5822 11.995C19.5822 11.8641 19.5564 11.7344 19.5063 11.6135C19.4562 11.4925 19.3827 11.3826 19.2902 11.29C19.1976 11.1974 19.0877 11.124 18.9667 11.0739C18.8457 11.0238 18.7161 10.998 18.5852 10.998C18.4542 10.998 18.3246 11.0238 18.2036 11.0739C18.0827 11.124 17.9727 11.1974 17.8802 11.29L13.0002 16.17V5C13.0002 4.45 12.5502 4 12.0002 4C11.4502 4 11.0002 4.45 11.0002 5Z" fill="#1572D3"/>
</svg>
