<svg width="38" height="38" viewBox="0 0 38 38" fill="none" xmlns="http://www.w3.org/2000/svg">
<rect x="0.797607" width="36.3241" height="38" rx="10.1333" fill="#BDBDBD"/>
<path d="M4.94885 17.7847C5.00141 16.343 5.00141 14.2072 5.10652 12.018C5.21162 10.3093 5.63206 8.76081 6.68315 7.37252C7.83935 5.82404 9.36343 4.91631 11.2028 4.54254C12.0963 4.38236 12.9897 4.27556 13.8831 4.27556C16.4583 4.22217 18.9809 4.22217 21.5561 4.22217C22.975 4.22217 24.4466 4.27556 25.8655 4.38236C27.9677 4.59594 29.7546 5.39688 31.121 7.05214C31.9618 8.06666 32.4348 9.18797 32.6976 10.4695C32.9078 11.4306 32.9604 12.3383 32.9604 13.2994C32.9604 16.61 32.9604 19.9205 32.9604 23.2845C32.9604 24.6728 32.8553 26.061 32.3823 27.4493C31.4889 29.9589 29.8071 31.5074 27.2845 32.2549C26.286 32.5219 25.2349 32.6287 24.2363 32.6287C20.4524 32.7355 16.6159 32.7889 12.832 32.5753C11.2554 32.5219 9.78386 32.0948 8.41745 31.187C6.7357 30.0123 5.68461 28.4105 5.31673 26.3814C5.15907 25.4737 5.05396 24.566 5.05396 23.6582C4.94885 21.9496 4.94885 20.2409 4.94885 17.7847ZM18.9809 30.1725C20.6626 30.1725 22.3969 30.1191 24.0787 30.1191C24.9195 30.1191 25.7079 30.0657 26.4962 29.8521C28.1254 29.425 29.3341 28.4639 29.9122 26.8086C30.2801 25.9009 30.3852 24.9397 30.3852 23.9252C30.3852 20.2943 30.3852 16.7168 30.3852 13.0859C30.3852 12.4451 30.2801 11.751 30.175 11.1102C29.7546 8.97439 28.4407 7.6395 26.3385 7.10554C25.2874 6.89196 24.2363 6.83856 23.1327 6.83856C20.6101 6.83856 18.14 6.83856 15.6174 6.83856C14.3561 6.83856 13.0422 6.83856 11.7809 7.05214C9.73131 7.47931 8.36489 8.65402 7.83935 10.6831C7.57658 11.6976 7.52402 12.7121 7.52402 13.7266C7.47147 16.076 7.47147 18.4788 7.47147 20.8283C7.47147 22.003 7.47147 23.1777 7.57658 24.3524C7.62913 25.0465 7.73424 25.7407 7.8919 26.4348C8.31234 28.0367 9.36343 29.1046 10.9401 29.6386C11.886 29.9589 12.8846 30.0657 13.8831 30.0657C15.5649 30.1191 17.2992 30.1725 18.9809 30.1725Z" fill="white"/>
<path d="M18.9808 25.794C14.9867 25.794 11.7809 22.4835 11.7809 18.4788C11.7809 14.4207 15.0393 11.1636 18.9808 11.1636C22.975 11.217 26.1808 14.4741 26.1808 18.4788C26.1808 22.5369 22.9224 25.794 18.9808 25.794ZM18.9808 23.231C21.556 23.231 23.6582 21.0952 23.6582 18.4788C23.6582 15.8624 21.556 13.7266 18.9808 13.7266C16.4057 13.7266 14.3561 15.809 14.3035 18.4788C14.3035 21.0952 16.4057 23.231 18.9808 23.231Z" fill="white"/>
<path d="M28.1253 10.8964C28.1253 11.8575 27.337 12.6051 26.4436 12.6051C25.5501 12.6051 24.7618 11.8041 24.8144 10.843C24.8144 9.8819 25.6027 9.13435 26.5487 9.18775C27.4421 9.18775 28.1253 9.93529 28.1253 10.8964Z" fill="white"/>
</svg>
