<svg width="18" height="24" viewBox="0 0 18 24" fill="none" xmlns="http://www.w3.org/2000/svg">
<g clip-path="url(#clip0_76_346)">
<path d="M8.20335 23.5158C1.65568 13.6421 0.440308 12.6287 0.440308 9C0.440308 4.02942 4.31403 0 9.09255 0C13.8711 0 17.7448 4.02942 17.7448 9C17.7448 12.6287 16.5294 13.6421 9.98174 23.5158C9.55206 24.1614 8.63299 24.1614 8.20335 23.5158ZM9.09255 12.75C11.0836 12.75 12.6976 11.0711 12.6976 9C12.6976 6.92892 11.0836 5.25 9.09255 5.25C7.1015 5.25 5.48745 6.92892 5.48745 9C5.48745 11.0711 7.1015 12.75 9.09255 12.75Z" fill="#1572D3"/>
</g>
<defs>
<clipPath id="clip0_76_346">
<rect width="17.3045" height="24" fill="white" transform="translate(0.440308)"/>
</clipPath>
</defs>
</svg>
