<svg width="38" height="30" viewBox="0 0 38 30" fill="none" xmlns="http://www.w3.org/2000/svg">
<path d="M18.5898 11.1951L23.4769 15.0134V14.8201C23.4769 13.8587 22.9896 12.9366 22.1223 12.2568C21.2549 11.577 20.0785 11.1951 18.8519 11.1951H18.5898ZM11.9606 12.1617L14.3502 14.0347C14.2731 14.2884 14.2269 14.5422 14.2269 14.8201C14.2269 15.7815 14.7142 16.7035 15.5815 17.3833C16.4489 18.0631 17.6253 18.4451 18.8519 18.4451C19.1911 18.4451 19.5302 18.4088 19.854 18.3484L22.2436 20.2213C21.2106 20.6201 20.0698 20.8617 18.8519 20.8617C16.8075 20.8617 14.8469 20.2252 13.4013 19.0922C11.9557 17.9591 11.1436 16.4224 11.1436 14.8201C11.1436 13.8655 11.4519 12.9713 11.9606 12.1617ZM3.43522 5.47965L6.95022 8.23465L7.64397 8.7784C5.10022 10.3492 3.09605 12.4034 1.89355 14.8201C4.56064 20.1247 11.1436 23.8826 18.8519 23.8826C21.2415 23.8826 23.5231 23.5201 25.6044 22.8676L26.2673 23.3751L30.769 26.9034L32.7269 25.3688L5.39314 3.94507M18.8519 8.7784C20.8963 8.7784 22.8569 9.41493 24.3025 10.548C25.7481 11.681 26.5602 13.2177 26.5602 14.8201C26.5602 15.5934 26.3598 16.3426 26.0052 17.0192L30.5223 20.5597C32.8348 19.0492 34.6848 17.0676 35.8102 14.8201C33.1431 9.51548 26.5602 5.75757 18.8519 5.75757C16.6936 5.75757 14.6277 6.05965 12.6852 6.6034L16.0306 9.20132C16.9094 8.93548 17.8498 8.7784 18.8519 8.7784Z" fill="#667085"/>
</svg>
