<svg width="34" height="41" viewBox="0 0 34 41" fill="none" xmlns="http://www.w3.org/2000/svg">
<path d="M31.2804 10.0602C30.2154 10.647 29.0675 11.0327 27.878 11.2171C29.0951 10.3285 30.0356 8.92003 30.4782 7.22656C29.3303 8.06491 28.0578 8.65176 26.7162 8.9871C25.6235 7.54514 24.0883 6.70679 22.3455 6.70679C19.0952 6.70679 16.4396 9.92605 16.4396 13.8998C16.4396 14.4699 16.495 15.0232 16.5918 15.543C11.6679 15.2412 7.28342 12.374 4.36505 8.03138C3.8533 9.0877 3.56284 10.3285 3.56284 11.6363C3.56284 14.1346 4.60018 16.3478 6.20459 17.6053C5.22258 17.6053 4.30973 17.27 3.50752 16.767V16.8173C3.50752 20.3048 5.55453 23.2223 8.26543 23.8762C7.39508 24.1649 6.48135 24.2051 5.59602 23.9935C5.97168 25.4229 6.7074 26.6736 7.69976 27.5698C8.69212 28.4661 9.89121 28.9628 11.1285 28.9901C9.03116 31.0029 6.43142 32.0908 3.75648 32.0752C3.28622 32.0752 2.81596 32.0417 2.3457 31.9746C4.97362 34.0202 8.09946 35.2106 11.4466 35.2106C22.3455 35.2106 28.3344 24.245 28.3344 14.7382C28.3344 14.4196 28.3344 14.1178 28.3206 13.7992C29.4824 12.7932 30.4782 11.5189 31.2804 10.0602Z" fill="#1572D3"/>
</svg>
