<svg width="34" height="41" viewBox="0 0 34 41" fill="none" xmlns="http://www.w3.org/2000/svg">
<path d="M14.6362 25.9098L21.8146 20.8797L14.6362 15.8496V25.9098ZM30.625 12.7813C30.8048 13.5693 30.9293 14.6256 31.0123 15.967C31.1091 17.3083 31.1506 18.4653 31.1506 19.4713L31.2336 20.8797C31.2336 24.5517 31.0123 27.2512 30.625 28.9782C30.2792 30.4872 29.477 31.4597 28.2322 31.8788C27.5822 32.0968 26.3927 32.2477 24.567 32.3483C22.7689 32.4657 21.123 32.516 19.6016 32.516L17.4024 32.6166C11.6072 32.6166 7.99725 32.3483 6.57265 31.8788C5.32784 31.4597 4.52564 30.4872 4.17986 28.9782C4.00005 28.1901 3.87557 27.1338 3.79259 25.7924C3.69577 24.4511 3.65428 23.2942 3.65428 22.2881L3.57129 20.8797C3.57129 17.2077 3.79259 14.5083 4.17986 12.7813C4.52564 11.2722 5.32784 10.2997 6.57265 9.88057C7.22271 9.6626 8.41219 9.5117 10.2379 9.41109C12.0359 9.29372 13.6819 9.24342 15.2033 9.24342L17.4024 9.14282C23.1977 9.14282 26.8076 9.41109 28.2322 9.88057C29.477 10.2997 30.2792 11.2722 30.625 12.7813Z" fill="#1572D3"/>
</svg>
