<svg width="959" height="894" viewBox="0 0 959 894" fill="none" xmlns="http://www.w3.org/2000/svg">
<path d="M1456.67 489.855C1456.67 619.638 1417.78 737.114 1354.94 822.133C1292.09 907.152 1205.31 959.687 1109.5 959.687C1061.43 959.687 978.522 977.355 878.665 999.411C871.789 1000.93 864.831 1002.47 857.799 1004.03C762.683 1025.08 653.868 1049.16 545.704 1065.59C429.538 1083.24 314.161 1092.06 217.338 1078.83C120.766 1065.64 42.7514 1030.53 0.761783 960.488C122.802 925.105 195.706 847.057 249.551 748.66C286.838 680.519 315.007 602.571 344.027 522.266C356.966 486.461 370.075 450.187 384.236 414.105C430.176 297.056 487.221 181.942 585.551 91.0184C683.868 0.106926 823.503 -66.6603 1034.69 -86.9351C1082.55 -86.9285 1132.85 -67.1376 1181.4 -33.3515C1229.96 0.437775 1276.73 48.204 1317.52 104.096C1399.1 215.887 1456.67 360.109 1456.67 489.855Z" fill="#1572D3" fill-opacity="0.26" stroke="#D0D5DD"/>
<path d="M486.078 134.897C431.59 229.602 383.5 346.565 387 342.565C379 344.565 426.972 156.066 467.128 100.692C584.657 -46.4238 710.205 -106.589 724.882 -95.9453C733.363 -103.116 551.262 21.6016 486.078 134.897Z" fill="#1572D3" fill-opacity="0.57"/>
</svg>
