<svg width="256" height="256" viewBox="0 0 256 256" fill="none" xmlns="http://www.w3.org/2000/svg">
<g clip-path="url(#clip0_126_546)">
<path d="M266.748 239.972H251.018V127.972C251.018 123.728 249.332 119.659 246.331 116.658C243.331 113.658 239.261 111.972 235.018 111.972H191.018C189.957 111.972 188.939 112.393 188.189 113.143C187.439 113.894 187.018 114.911 187.018 115.972V239.972H171.018V64.3819C171.044 61.8897 170.503 59.4241 169.436 57.1718C168.369 54.9196 166.803 52.9396 164.858 51.3819C162.206 49.3142 158.97 48.1347 155.609 48.0109C152.249 47.887 148.935 48.8251 146.138 50.6919L66.1376 103.972C63.943 105.436 62.1445 107.42 60.9022 109.748C59.66 112.075 59.0126 114.674 59.0176 117.312V239.972H43.2876C41.2202 239.941 39.218 240.695 37.6837 242.081C36.1494 243.467 35.1968 245.382 35.0176 247.442C34.9449 248.536 35.098 249.634 35.4674 250.666C35.8368 251.699 36.4145 252.645 37.1648 253.445C37.915 254.244 38.8217 254.882 39.8285 255.316C40.8354 255.751 41.9209 255.974 43.0176 255.972H267.018C268.114 255.974 269.2 255.751 270.207 255.316C271.213 254.882 272.12 254.244 272.87 253.445C273.621 252.645 274.198 251.699 274.568 250.666C274.937 249.634 275.09 248.536 275.018 247.442C274.838 245.382 273.886 243.467 272.351 242.081C270.817 240.695 268.815 239.941 266.748 239.972ZM103.018 215.972C103.02 217.069 102.797 218.154 102.362 219.161C101.927 220.168 101.29 221.074 100.49 221.825C99.6903 222.575 98.7447 223.153 97.712 223.522C96.6794 223.891 95.5819 224.045 94.4876 223.972C92.426 223.793 90.5091 222.839 89.123 221.302C87.7368 219.766 86.9845 217.761 87.0176 215.692V200.242C86.9894 198.175 87.7437 196.174 89.1291 194.64C90.5146 193.107 92.4287 192.153 94.4876 191.972C95.5819 191.899 96.6794 192.052 97.712 192.422C98.7447 192.791 99.6903 193.369 100.49 194.119C101.29 194.869 101.927 195.776 102.362 196.783C102.797 197.79 103.02 198.875 103.018 199.972V215.972ZM103.018 159.972C103.02 161.069 102.797 162.154 102.362 163.161C101.927 164.168 101.29 165.074 100.49 165.825C99.6903 166.575 98.7447 167.153 97.712 167.522C96.6794 167.891 95.5819 168.045 94.4876 167.972C92.4269 167.79 90.5114 166.836 89.1257 165.3C87.74 163.764 86.9869 161.76 87.0176 159.692V144.242C86.9894 142.175 87.7437 140.174 89.1291 138.64C90.5146 137.107 92.4287 136.153 94.4876 135.972C95.5819 135.899 96.6794 136.052 97.712 136.422C98.7447 136.791 99.6903 137.369 100.49 138.119C101.29 138.869 101.927 139.776 102.362 140.783C102.797 141.79 103.02 142.875 103.018 143.972V159.972ZM143.018 215.972C143.02 217.069 142.797 218.154 142.362 219.161C141.927 220.168 141.29 221.074 140.49 221.825C139.69 222.575 138.745 223.153 137.712 223.522C136.679 223.891 135.582 224.045 134.488 223.972C132.43 223.793 130.515 222.842 129.13 221.309C127.744 219.777 126.99 217.777 127.018 215.712V200.242C126.992 198.177 127.747 196.178 129.133 194.647C130.518 193.115 132.43 192.163 134.488 191.982C135.582 191.909 136.679 192.062 137.712 192.432C138.745 192.801 139.69 193.379 140.49 194.129C141.29 194.879 141.927 195.786 142.362 196.793C142.797 197.8 143.02 198.885 143.018 199.982V215.972ZM143.018 159.972C143.02 161.069 142.797 162.154 142.362 163.161C141.927 164.168 141.29 165.074 140.49 165.825C139.69 166.575 138.745 167.153 137.712 167.522C136.679 167.891 135.582 168.045 134.488 167.972C132.43 167.79 130.518 166.839 129.133 165.307C127.747 163.775 126.992 161.777 127.018 159.712V144.242C126.992 142.177 127.747 140.178 129.133 138.647C130.518 137.115 132.43 136.163 134.488 135.982C135.582 135.909 136.679 136.062 137.712 136.432C138.745 136.801 139.69 137.379 140.49 138.129C141.29 138.879 141.927 139.786 142.362 140.793C142.797 141.8 143.02 142.885 143.018 143.982V159.972Z" fill="#1572D3" fill-opacity="0.2"/>
</g>
<defs>
<clipPath id="clip0_126_546">
<rect width="256" height="256" fill="white"/>
</clipPath>
</defs>
</svg>
