<svg width="257" height="258" viewBox="0 0 257 258" fill="none" xmlns="http://www.w3.org/2000/svg">
<g clip-path="url(#clip0_126_548)">
<path d="M-10.7896 241.847H5.00189V128.972C5.00189 124.695 6.69418 120.594 9.70648 117.57C12.7188 114.546 16.8044 112.847 21.0644 112.847H65.2363C66.3013 112.847 67.3227 113.271 68.0757 114.027C68.8288 114.783 69.2519 115.809 69.2519 116.878V241.847H85.3144V64.8848C85.2878 62.3732 85.8307 59.8884 86.9021 57.6185C87.9736 55.3486 89.5453 53.3532 91.4984 51.7833C94.1608 49.6995 97.4094 48.5108 100.783 48.3859C104.157 48.2611 107.484 49.2065 110.292 51.0879L190.604 104.784C192.807 106.26 194.613 108.259 195.86 110.605C197.107 112.951 197.757 115.57 197.752 118.228V241.847H213.543C215.619 241.816 217.629 242.575 219.169 243.972C220.709 245.369 221.666 247.299 221.846 249.375C221.919 250.478 221.765 251.584 221.394 252.625C221.023 253.665 220.443 254.618 219.69 255.425C218.937 256.231 218.027 256.873 217.016 257.311C216.005 257.749 214.915 257.974 213.814 257.972H-11.0606C-12.1616 257.974 -13.2513 257.749 -14.2621 257.311C-15.2729 256.873 -16.1831 256.231 -16.9363 255.425C-17.6895 254.618 -18.2695 253.665 -18.6403 252.625C-19.0111 251.584 -19.1648 250.478 -19.0919 249.375C-18.9119 247.299 -17.9556 245.369 -16.4153 243.972C-14.875 242.575 -12.865 241.816 -10.7896 241.847ZM153.58 217.659C153.578 218.764 153.802 219.858 154.238 220.873C154.674 221.888 155.314 222.802 156.117 223.558C156.92 224.314 157.87 224.896 158.906 225.268C159.943 225.641 161.045 225.795 162.143 225.722C164.213 225.541 166.137 224.579 167.529 223.031C168.92 221.483 169.676 219.462 169.643 217.377V201.806C169.671 199.723 168.914 197.707 167.523 196.161C166.132 194.615 164.21 193.655 162.143 193.472C161.045 193.398 159.943 193.553 158.906 193.925C157.87 194.297 156.92 194.88 156.117 195.636C155.314 196.392 154.674 197.305 154.238 198.32C153.802 199.335 153.578 200.429 153.58 201.534V217.659ZM153.58 161.222C153.578 162.327 153.802 163.421 154.238 164.436C154.674 165.45 155.314 166.364 156.117 167.12C156.92 167.876 157.87 168.459 158.906 168.831C159.943 169.203 161.045 169.357 162.143 169.284C164.212 169.101 166.135 168.139 167.526 166.591C168.917 165.043 169.673 163.024 169.643 160.939V145.369C169.671 143.286 168.914 141.269 167.523 139.724C166.132 138.178 164.21 137.217 162.143 137.034C161.045 136.961 159.943 137.115 158.906 137.487C157.87 137.86 156.92 138.442 156.117 139.198C155.314 139.954 154.674 140.868 154.238 141.883C153.802 142.897 153.578 143.991 153.58 145.097V161.222ZM113.424 217.659C113.421 218.764 113.645 219.858 114.082 220.873C114.518 221.888 115.158 222.802 115.961 223.558C116.764 224.314 117.713 224.896 118.75 225.268C119.787 225.641 120.889 225.795 121.987 225.722C124.053 225.541 125.975 224.583 127.366 223.038C128.757 221.494 129.514 219.479 129.486 217.397V201.806C129.512 199.725 128.754 197.711 127.363 196.167C125.972 194.624 124.052 193.665 121.987 193.482C120.889 193.408 119.787 193.563 118.75 193.935C117.713 194.307 116.764 194.89 115.961 195.646C115.158 196.402 114.518 197.316 114.082 198.33C113.645 199.345 113.421 200.439 113.424 201.544V217.659ZM113.424 161.222C113.421 162.327 113.645 163.421 114.082 164.436C114.518 165.45 115.158 166.364 115.961 167.12C116.764 167.876 117.713 168.459 118.75 168.831C119.787 169.203 120.889 169.357 121.987 169.284C124.052 169.101 125.972 168.142 127.363 166.598C128.754 165.055 129.512 163.041 129.486 160.96V145.369C129.512 143.288 128.754 141.274 127.363 139.73C125.972 138.186 124.052 137.227 121.987 137.044C120.889 136.971 119.787 137.125 118.75 137.498C117.713 137.87 116.764 138.452 115.961 139.208C115.158 139.964 114.518 140.878 114.082 141.893C113.645 142.907 113.421 144.001 113.424 145.107V161.222Z" fill="#1572D3" fill-opacity="0.2"/>
</g>
<defs>
<clipPath id="clip0_126_548">
<rect width="257" height="258" fill="white" transform="matrix(-1 0 0 1 257 0)"/>
</clipPath>
</defs>
</svg>
