<svg width="25" height="24" viewBox="0 0 25 24" fill="none" xmlns="http://www.w3.org/2000/svg">
<g clip-path="url(#clip0_76_343)">
<path d="M23.231 1.15363L18.4378 0.0286319C17.917 -0.093243 17.3824 0.183319 17.1704 0.680194L14.9582 5.93019C14.7646 6.38956 14.8937 6.92863 15.2762 7.24269L18.0691 9.56769C16.41 13.163 13.511 16.1536 9.90236 17.8739L7.6164 15.0333C7.303 14.6442 6.7776 14.513 6.32593 14.7099L1.16409 16.9599C0.670946 17.1802 0.399027 17.7239 0.518855 18.2536L1.62497 23.1286C1.74019 23.6349 2.18263 24.0005 2.70342 24.0005C14.5065 24.0005 24.0882 14.2739 24.0882 2.25051C24.0882 1.72551 23.7333 1.27082 23.231 1.15363Z" fill="#1572D3"/>
</g>
<defs>
<clipPath id="clip0_76_343">
<rect width="23.597" height="24" fill="white" transform="translate(0.490723)"/>
</clipPath>
</defs>
</svg>
