<svg width="25" height="23" viewBox="0 0 25 23" fill="none" xmlns="http://www.w3.org/2000/svg">
<path d="M0.423493 10.565C2.93811 9.01958 5.74511 7.72978 8.36784 6.43338C12.8799 4.30999 17.41 2.22338 21.9857 0.280785C22.876 -0.0502153 24.4756 -0.373915 24.6325 1.09808C24.5466 3.18168 24.1933 5.25309 23.9509 7.32448C23.3358 11.8797 22.6249 16.4193 21.9316 20.9595C21.6927 22.4718 19.9947 23.2547 18.9082 22.2869C16.2971 20.3191 13.666 18.3705 11.0883 16.3571C10.2439 15.3998 11.0269 14.0251 11.781 13.3415C13.9316 10.9769 16.2123 8.96789 18.2504 6.48108C18.8002 4.99978 17.1758 6.24818 16.64 6.63068C13.6958 8.89429 10.8238 11.2961 7.71973 13.2855C6.13419 14.2593 4.28622 13.4271 2.7014 12.8837C1.2804 12.2273 -0.80188 11.566 0.423349 10.5651L0.423493 10.565Z" fill="white"/>
</svg>
