<svg width="31" height="29" viewBox="0 0 31 29" fill="none" xmlns="http://www.w3.org/2000/svg">
<path d="M13.6981 1.08973C14.2137 -0.149947 15.9699 -0.149945 16.4855 1.08973L19.5287 8.40653C19.7461 8.92915 20.2376 9.28623 20.8018 9.33146L28.7009 9.96473C30.0392 10.072 30.5819 11.7422 29.5622 12.6157L23.5439 17.771C23.1141 18.1392 22.9263 18.717 23.0577 19.2675L24.8963 26.9757C25.2079 28.2817 23.7871 29.3139 22.6413 28.6141L15.8786 24.4834C15.3955 24.1884 14.788 24.1884 14.305 24.4834L7.54227 28.6141C6.39647 29.3139 4.97573 28.2817 5.28725 26.9757L7.12594 19.2675C7.25727 18.717 7.06954 18.1392 6.63967 17.771L0.62139 12.6157C-0.39828 11.7422 0.144399 10.072 1.48273 9.96473L9.38183 9.33146C9.94604 9.28623 10.4375 8.92915 10.6549 8.40653L13.6981 1.08973Z" fill="#1572D3"/>
</svg>
