<svg width="26" height="25" viewBox="0 0 26 25" fill="none" xmlns="http://www.w3.org/2000/svg">
<path d="M12.0359 1.32475C12.4655 0.29169 13.929 0.291692 14.3587 1.32476L16.8947 7.42209C17.0758 7.8576 17.4854 8.15517 17.9556 8.19286L24.5382 8.72059C25.6534 8.81 26.1057 10.2018 25.2559 10.9297L20.2407 15.2258C19.8825 15.5326 19.726 16.0141 19.8355 16.4729L21.3677 22.8964C21.6273 23.9847 20.4434 24.8449 19.4885 24.2617L13.8529 20.8195C13.4504 20.5736 12.9441 20.5736 12.5416 20.8195L6.906 24.2617C5.95116 24.8449 4.76721 23.9847 5.02681 22.8964L6.55905 16.4729C6.66849 16.0141 6.51205 15.5326 6.15383 15.2258L1.13859 10.9297C0.288868 10.2018 0.7411 8.81 1.85638 8.72059L8.43896 8.19286C8.90913 8.15517 9.3187 7.8576 9.49984 7.42209L12.0359 1.32475Z" fill="#CFCFCF"/>
</svg>
