<svg width="26" height="25" viewBox="0 0 26 25" fill="none" xmlns="http://www.w3.org/2000/svg">
<path d="M11.8386 1.32478C12.2683 0.291721 13.7317 0.291723 14.1614 1.32479L16.6974 7.42212C16.8786 7.85763 17.2881 8.1552 17.7583 8.19289L24.3409 8.72062C25.4562 8.81003 25.9084 10.2019 25.0587 10.9297L20.0434 15.2258C19.6852 15.5327 19.5288 16.0141 19.6382 16.473L21.1705 22.8964C21.4301 23.9848 20.2461 24.845 19.2913 24.2617L13.6557 20.8195C13.2531 20.5737 12.7469 20.5737 12.3443 20.8195L6.70873 24.2617C5.7539 24.845 4.56994 23.9848 4.82955 22.8964L6.36178 16.473C6.47123 16.0141 6.31478 15.5327 5.95656 15.2258L0.941328 10.9297C0.0916027 10.2018 0.543835 8.81003 1.65911 8.72062L8.2417 8.19289C8.71187 8.1552 9.12144 7.85763 9.30258 7.42212L11.8386 1.32478Z" fill="#CFCFCF"/>
</svg>
