<svg width="31" height="29" viewBox="0 0 31 29" fill="none" xmlns="http://www.w3.org/2000/svg">
<path d="M14.0009 1.08973C14.5165 -0.149947 16.2726 -0.149945 16.7882 1.08973L19.8314 8.40653C20.0488 8.92915 20.5403 9.28623 21.1045 9.33146L29.0036 9.96473C30.3419 10.072 30.8846 11.7422 29.8649 12.6157L23.8467 17.771C23.4168 18.1392 23.2291 18.717 23.3604 19.2675L25.1991 26.9757C25.5106 28.2817 24.0899 29.3139 22.9441 28.6141L16.1813 24.4834C15.6983 24.1884 15.0908 24.1884 14.6077 24.4834L7.84501 28.6141C6.69921 29.3139 5.27846 28.2817 5.58999 26.9757L7.42867 19.2675C7.56 18.717 7.37227 18.1392 6.94241 17.771L0.924125 12.6157C-0.0955456 11.7422 0.447133 10.072 1.78547 9.96473L9.68457 9.33146C10.2488 9.28623 10.7403 8.92915 10.9576 8.40653L14.0009 1.08973Z" fill="#1572D3"/>
</svg>
