<svg width="31" height="29" viewBox="0 0 31 29" fill="none" xmlns="http://www.w3.org/2000/svg">
<path d="M14.3036 1.08973C14.8192 -0.149947 16.5753 -0.149945 17.0909 1.08973L20.1342 8.40653C20.3515 8.92915 20.843 9.28623 21.4072 9.33146L29.3063 9.96473C30.6447 10.072 31.1873 11.7422 30.1677 12.6157L24.1494 17.771C23.7195 18.1392 23.5318 18.717 23.6631 19.2675L25.5018 26.9757C25.8133 28.2817 24.3926 29.3139 23.2468 28.6141L16.4841 24.4834C16.001 24.1884 15.3935 24.1884 14.9105 24.4834L8.14774 28.6141C7.00194 29.3139 5.5812 28.2817 5.89272 26.9757L7.73141 19.2675C7.86274 18.717 7.67501 18.1392 7.24514 17.771L1.22686 12.6157C0.207189 11.7422 0.749867 10.072 2.0882 9.96473L9.9873 9.33146C10.5515 9.28623 11.043 8.92915 11.2604 8.40653L14.3036 1.08973Z" fill="#1572D3"/>
</svg>
