<svg width="26" height="25" viewBox="0 0 26 25" fill="none" xmlns="http://www.w3.org/2000/svg">
<path d="M12.2331 1.32475C12.6628 0.29169 14.1263 0.291692 14.5559 1.32476L17.092 7.42209C17.2731 7.8576 17.6827 8.15517 18.1528 8.19286L24.7354 8.72059C25.8507 8.81 26.3029 10.2018 25.4532 10.9297L20.438 15.2258C20.0797 15.5326 19.9233 16.0141 20.0327 16.4729L21.565 22.8964C21.8246 23.9847 20.6406 24.8449 19.6858 24.2617L14.0502 20.8195C13.6477 20.5736 13.1414 20.5736 12.7389 20.8195L7.10326 24.2617C6.14843 24.8449 4.96447 23.9847 5.22408 22.8964L6.75631 16.4729C6.86576 16.0141 6.70932 15.5326 6.35109 15.2258L1.33586 10.9297C0.486134 10.2018 0.938366 8.81 2.05365 8.72059L8.63623 8.19286C9.1064 8.15517 9.51597 7.8576 9.69711 7.42209L12.2331 1.32475Z" fill="#CFCFCF"/>
</svg>
