<svg width="30" height="29" viewBox="0 0 30 29" fill="none" xmlns="http://www.w3.org/2000/svg">
<path d="M13.6063 1.08973C14.1219 -0.149947 15.8781 -0.149945 16.3937 1.08973L19.4369 8.40653C19.6543 8.92915 20.1458 9.28623 20.71 9.33146L28.6091 9.96473C29.9474 10.072 30.4901 11.7422 29.4704 12.6157L23.4521 17.771C23.0223 18.1392 22.8345 18.717 22.9659 19.2675L24.8045 26.9757C25.1161 28.2817 23.6953 29.3139 22.5495 28.6141L15.7868 24.4834C15.3038 24.1884 14.6962 24.1884 14.2132 24.4834L7.45048 28.6141C6.30467 29.3139 4.88393 28.2817 5.19546 26.9757L7.03414 19.2675C7.16547 18.717 6.97774 18.1392 6.54788 17.771L0.529593 12.6157C-0.490077 11.7422 0.0526018 10.072 1.39094 9.96473L9.29004 9.33146C9.85424 9.28623 10.3457 8.92915 10.5631 8.40653L13.6063 1.08973Z" fill="#1572D3"/>
</svg>
