<svg width="26" height="25" viewBox="0 0 26 25" fill="none" xmlns="http://www.w3.org/2000/svg">
<path d="M11.4304 1.32475C11.8601 0.29169 13.3235 0.291692 13.7532 1.32476L16.2892 7.42209C16.4704 7.8576 16.8799 8.15517 17.3501 8.19286L23.9327 8.72059C25.048 8.81 25.5002 10.2018 24.6505 10.9297L19.6352 15.2258C19.277 15.5326 19.1206 16.0141 19.23 16.4729L20.7623 22.8964C21.0219 23.9847 19.8379 24.8449 18.8831 24.2617L13.2475 20.8195C12.8449 20.5736 12.3387 20.5736 11.9361 20.8195L6.30053 24.2617C5.34569 24.8449 4.16174 23.9847 4.42134 22.8964L5.95358 16.4729C6.06302 16.0141 5.90658 15.5326 5.54836 15.2258L0.533125 10.9297C-0.3166 10.2018 0.135632 8.81 1.25091 8.72059L7.83349 8.19286C8.30367 8.15517 8.71323 7.8576 8.89437 7.42209L11.4304 1.32475Z" fill="#CFCFCF"/>
</svg>
