<svg width="26" height="25" viewBox="0 0 26 25" fill="none" xmlns="http://www.w3.org/2000/svg">
<path d="M11.5359 1.32475C11.9655 0.29169 13.429 0.291692 13.8587 1.32476L16.3947 7.42209C16.5758 7.8576 16.9854 8.15517 17.4556 8.19286L24.0382 8.72059C25.1534 8.81 25.6057 10.2018 24.7559 10.9297L19.7407 15.2258C19.3825 15.5326 19.226 16.0141 19.3355 16.4729L20.8677 22.8964C21.1273 23.9847 19.9434 24.8449 18.9885 24.2617L13.3529 20.8195C12.9504 20.5736 12.4441 20.5736 12.0416 20.8195L6.406 24.2617C5.45116 24.8449 4.26721 23.9847 4.52681 22.8964L6.05905 16.4729C6.16849 16.0141 6.01205 15.5326 5.65383 15.2258L0.638593 10.9297C-0.211132 10.2018 0.2411 8.81 1.35638 8.72059L7.93896 8.19286C8.40913 8.15517 8.8187 7.8576 8.99984 7.42209L11.5359 1.32475Z" fill="#CFCFCF"/>
</svg>
