<svg width="26" height="25" viewBox="0 0 26 25" fill="none" xmlns="http://www.w3.org/2000/svg">
<path d="M11.6277 1.32475C12.0573 0.29169 13.5208 0.291692 13.9505 1.32476L16.4865 7.42209C16.6676 7.8576 17.0772 8.15517 17.5474 8.19286L24.13 8.72059C25.2452 8.81 25.6975 10.2018 24.8477 10.9297L19.8325 15.2258C19.4743 15.5326 19.3178 16.0141 19.4273 16.4729L20.9595 22.8964C21.2191 23.9847 20.0352 24.8449 19.0803 24.2617L13.4447 20.8195C13.0422 20.5736 12.5359 20.5736 12.1334 20.8195L6.49779 24.2617C5.54296 24.8449 4.359 23.9847 4.61861 22.8964L6.15085 16.4729C6.26029 16.0141 6.10385 15.5326 5.74563 15.2258L0.73039 10.9297C-0.119335 10.2018 0.332897 8.81 1.44818 8.72059L8.03076 8.19286C8.50093 8.15517 8.9105 7.8576 9.09164 7.42209L11.6277 1.32475Z" fill="#CFCFCF"/>
</svg>
