<svg width="31" height="29" viewBox="0 0 31 29" fill="none" xmlns="http://www.w3.org/2000/svg">
<path d="M14.3954 1.08973C14.911 -0.149947 16.6671 -0.149945 17.1827 1.08973L20.226 8.40653C20.4433 8.92915 20.9348 9.28623 21.499 9.33146L29.3981 9.96473C30.7365 10.072 31.2791 11.7422 30.2595 12.6157L24.2412 17.771C23.8113 18.1392 23.6236 18.717 23.7549 19.2675L25.5936 26.9757C25.9051 28.2817 24.4844 29.3139 23.3386 28.6141L16.5759 24.4834C16.0928 24.1884 15.4853 24.1884 15.0023 24.4834L8.23954 28.6141C7.09374 29.3139 5.67299 28.2817 5.98452 26.9757L7.8232 19.2675C7.95453 18.717 7.7668 18.1392 7.33694 17.771L1.31866 12.6157C0.298986 11.7422 0.841664 10.072 2.18 9.96473L10.0791 9.33146C10.6433 9.28623 11.1348 8.92915 11.3522 8.40653L14.3954 1.08973Z" fill="#1572D3"/>
</svg>
