<svg width="26" height="25" viewBox="0 0 26 25" fill="none" xmlns="http://www.w3.org/2000/svg">
<path d="M11.7331 1.32475C12.1628 0.29169 13.6263 0.291692 14.0559 1.32476L16.592 7.42209C16.7731 7.8576 17.1827 8.15517 17.6528 8.19286L24.2354 8.72059C25.3507 8.81 25.8029 10.2018 24.9532 10.9297L19.938 15.2258C19.5797 15.5326 19.4233 16.0141 19.5327 16.4729L21.065 22.8964C21.3246 23.9847 20.1406 24.8449 19.1858 24.2617L13.5502 20.8195C13.1477 20.5736 12.6414 20.5736 12.2389 20.8195L6.60326 24.2617C5.64843 24.8449 4.46447 23.9847 4.72408 22.8964L6.25631 16.4729C6.36576 16.0141 6.20932 15.5326 5.85109 15.2258L0.835859 10.9297C-0.0138661 10.2018 0.438366 8.81 1.55365 8.72059L8.13623 8.19286C8.6064 8.15517 9.01597 7.8576 9.19711 7.42209L11.7331 1.32475Z" fill="#CFCFCF"/>
</svg>
