<svg width="26" height="25" viewBox="0 0 26 25" fill="none" xmlns="http://www.w3.org/2000/svg">
<path d="M12.1277 1.32475C12.5573 0.29169 14.0208 0.291692 14.4505 1.32476L16.9865 7.42209C17.1676 7.8576 17.5772 8.15517 18.0474 8.19286L24.63 8.72059C25.7452 8.81 26.1975 10.2018 25.3477 10.9297L20.3325 15.2258C19.9743 15.5326 19.8178 16.0141 19.9273 16.4729L21.4595 22.8964C21.7191 23.9847 20.5352 24.8449 19.5803 24.2617L13.9447 20.8195C13.5422 20.5736 13.0359 20.5736 12.6334 20.8195L6.99779 24.2617C6.04296 24.8449 4.859 23.9847 5.11861 22.8964L6.65085 16.4729C6.76029 16.0141 6.60385 15.5326 6.24563 15.2258L1.23039 10.9297C0.380665 10.2018 0.832897 8.81 1.94818 8.72059L8.53076 8.19286C9.00093 8.15517 9.4105 7.8576 9.59164 7.42209L12.1277 1.32475Z" fill="#CFCFCF"/>
</svg>
