<svg width="26" height="25" viewBox="0 0 26 25" fill="none" xmlns="http://www.w3.org/2000/svg">
<path d="M11.9304 1.32475C12.3601 0.29169 13.8235 0.291692 14.2532 1.32476L16.7892 7.42209C16.9704 7.8576 17.3799 8.15517 17.8501 8.19286L24.4327 8.72059C25.548 8.81 26.0002 10.2018 25.1505 10.9297L20.1352 15.2258C19.777 15.5326 19.6206 16.0141 19.73 16.4729L21.2623 22.8964C21.5219 23.9847 20.3379 24.8449 19.3831 24.2617L13.7475 20.8195C13.3449 20.5736 12.8387 20.5736 12.4361 20.8195L6.80053 24.2617C5.84569 24.8449 4.66174 23.9847 4.92134 22.8964L6.45358 16.4729C6.56302 16.0141 6.40658 15.5326 6.04836 15.2258L1.03312 10.9297C0.1834 10.2018 0.635632 8.81 1.75091 8.72059L8.33349 8.19286C8.80367 8.15517 9.21323 7.8576 9.39437 7.42209L11.9304 1.32475Z" fill="#CFCFCF"/>
</svg>
