<svg width="25" height="25" viewBox="0 0 25 25" fill="none" xmlns="http://www.w3.org/2000/svg">
<path d="M11.3386 1.32475C11.7683 0.29169 13.2317 0.291692 13.6614 1.32476L16.1974 7.42209C16.3786 7.8576 16.7881 8.15517 17.2583 8.19286L23.8409 8.72059C24.9562 8.81 25.4084 10.2018 24.5587 10.9297L19.5434 15.2258C19.1852 15.5326 19.0288 16.0141 19.1382 16.4729L20.6705 22.8964C20.9301 23.9847 19.7461 24.8449 18.7913 24.2617L13.1557 20.8195C12.7531 20.5736 12.2469 20.5736 11.8443 20.8195L6.20873 24.2617C5.2539 24.8449 4.06994 23.9847 4.32955 22.8964L5.86178 16.4729C5.97123 16.0141 5.81478 15.5326 5.45656 15.2258L0.441328 10.9297C-0.408397 10.2018 0.0438348 8.81 1.15911 8.72059L7.7417 8.19286C8.21187 8.15517 8.62144 7.8576 8.80258 7.42209L11.3386 1.32475Z" fill="#CFCFCF"/>
</svg>
