<svg width="37" height="37" viewBox="0 0 37 37" fill="none" xmlns="http://www.w3.org/2000/svg">
<g clip-path="url(#clip0_76_457)">
<path d="M9.95544 2.46668C7.98635 2.46656 6.06145 3.05038 4.42418 4.14429C2.7869 5.2382 1.51079 6.79308 0.757241 8.61227C0.00368799 10.4315 -0.193464 12.4333 0.190717 14.3645C0.574899 16.2958 1.52316 18.0697 2.91557 19.462L17.6268 34.1732C17.7413 34.2881 17.8774 34.3792 18.0273 34.4414C18.1771 34.5035 18.3377 34.5355 18.5 34.5355C18.6622 34.5355 18.8228 34.5035 18.9727 34.4414C19.1225 34.3792 19.2586 34.2881 19.3732 34.1732L34.0844 19.4595C35.9009 17.5825 36.9069 15.0667 36.8855 12.4547C36.8642 9.84266 35.817 7.34369 33.97 5.49665C32.123 3.64961 29.624 2.60249 27.012 2.5811C24.3999 2.5597 21.8842 3.56574 20.0071 5.38228L18.5 6.88694L16.9953 5.38228C16.0705 4.45755 14.9726 3.7241 13.7642 3.22383C12.5559 2.72356 11.2633 2.46628 9.95544 2.46668Z" fill="#1572D3"/>
</g>
<defs>
<clipPath id="clip0_76_457">
<rect width="37" height="37" fill="white"/>
</clipPath>
</defs>
</svg>
