<svg width="146" height="46" viewBox="0 0 146 46" fill="none" xmlns="http://www.w3.org/2000/svg">
<path fill-rule="evenodd" clip-rule="evenodd" d="M17.7309 46C15.3627 45.4733 13.0906 44.579 10.9965 43.3492L11.1179 40.9631C11.2834 37.7092 8.78367 35.207 5.55454 35.3723L2.9305 35.5071C1.68552 33.5219 0.743594 31.3604 0.136097 29.0946L2.19616 27.2251C4.60284 25.0427 4.59696 21.4965 2.19616 19.319L0 17.3265C0.537993 15.1105 1.39459 12.9851 2.54277 11.0174L5.55454 11.1719C8.79248 11.3381 11.2824 8.8261 11.1179 5.58101L10.9632 2.55534C12.9206 1.40166 15.0349 0.540833 17.2393 0L19.223 2.20702C21.3967 4.62558 24.9244 4.61968 27.0912 2.20702L28.9515 0.13677C31.2058 0.747054 33.3563 1.6933 35.3315 2.944L35.1973 5.58101C35.0319 8.83594 37.5316 11.3381 40.7607 11.1728L43.1351 11.0508C44.3587 13.1553 45.2487 15.4386 45.7728 17.8185L44.1181 19.319C41.7124 21.5034 41.7193 25.0486 44.1181 27.2261L45.6465 28.6115C45.0509 31.0396 44.0732 33.3565 42.7503 35.4746L40.7607 35.3723C37.5228 35.206 35.0329 37.718 35.1973 40.9631L35.2992 42.9625C33.1915 44.292 30.886 45.2745 28.4698 45.8731L27.0912 44.3381C24.9176 41.9195 21.3898 41.9254 19.223 44.3381L17.7309 46ZM22.8301 32.7825C28.2378 32.7825 32.6213 28.3773 32.6213 22.9429C32.6213 17.5085 28.2378 13.1034 22.8301 13.1034C17.4224 13.1034 13.0389 17.5085 13.0389 22.9429C13.0389 28.3773 17.4224 32.7825 22.8301 32.7825Z" fill="#1572D3"/>
<path d="M71.1202 9.45091C70.7442 8.7582 70.2273 8.2308 69.5693 7.86871C68.9113 7.50661 68.1437 7.32556 67.2664 7.32556C66.2951 7.32556 65.4335 7.54597 64.6815 7.98678C63.9296 8.42759 63.3421 9.05733 62.9191 9.87598C62.4961 10.6946 62.2846 11.6392 62.2846 12.7098C62.2846 13.8118 62.4961 14.7721 62.9191 15.5908C63.3578 16.4095 63.9609 17.0392 64.7285 17.48C65.4962 17.9208 66.3891 18.1412 67.4074 18.1412C68.6607 18.1412 69.6868 17.8106 70.4857 17.1494C71.2847 16.4724 71.8095 15.5357 72.0602 14.3392H66.4204V11.8124H75.303V14.6934C75.0837 15.8427 74.6137 16.9054 73.8931 17.8815C73.1724 18.8575 72.2403 19.6447 71.0967 20.243C69.9688 20.8255 68.6998 21.1167 67.2899 21.1167C65.7076 21.1167 64.2742 20.7625 62.9896 20.054C61.7207 19.3298 60.7181 18.3301 59.9818 17.0549C59.2611 15.7797 58.9008 14.3313 58.9008 12.7098C58.9008 11.0882 59.2611 9.63983 59.9818 8.36462C60.7181 7.07367 61.7207 6.07397 62.9896 5.36552C64.2742 4.64133 65.6998 4.27923 67.2664 4.27923C69.115 4.27923 70.7207 4.73579 72.0837 5.6489C73.4466 6.54627 74.3866 7.8136 74.9035 9.45091H71.1202Z" fill="#1572D3"/>
<path d="M89.8389 14.1503C89.8389 14.6226 89.8075 15.0477 89.7449 15.4255H80.2279C80.3062 16.3701 80.6352 17.11 81.2148 17.6453C81.7944 18.1806 82.5072 18.4482 83.3532 18.4482C84.5751 18.4482 85.4446 17.9208 85.9616 16.866H89.5099C89.1339 18.1255 88.4133 19.1645 87.348 19.9832C86.2827 20.7861 84.9746 21.1875 83.4237 21.1875C82.1704 21.1875 81.0425 20.912 80.0399 20.361C79.0529 19.7943 78.2774 18.9992 77.7135 17.9759C77.1652 16.9526 76.891 15.7719 76.891 14.4337C76.891 13.0797 77.1652 11.8911 77.7135 10.8678C78.2618 9.84449 79.0294 9.05733 80.0164 8.50631C81.0033 7.95529 82.1391 7.67979 83.4237 7.67979C84.6613 7.67979 85.7657 7.94742 86.737 8.48269C87.724 9.01797 88.4838 9.78152 89.0164 10.7733C89.5647 11.7494 89.8389 12.8751 89.8389 14.1503ZM86.4315 13.2057C86.4159 12.3556 86.1104 11.6786 85.5151 11.1748C84.9198 10.6553 84.1913 10.3955 83.3297 10.3955C82.5151 10.3955 81.8258 10.6474 81.2618 11.1512C80.7135 11.6392 80.3767 12.3241 80.2514 13.2057H86.4315Z" fill="#1572D3"/>
<path d="M91.3942 14.3864C91.3942 13.064 91.6527 11.8911 92.1697 10.8678C92.7023 9.84449 93.4151 9.05733 94.3081 8.50631C95.2167 7.95529 96.2271 7.67979 97.3394 7.67979C98.3107 7.67979 99.1567 7.87658 99.8773 8.27016C100.614 8.66374 101.201 9.15966 101.64 9.7579V7.89232H104.953V20.975H101.64V19.0622C101.217 19.6762 100.629 20.1879 99.8773 20.5972C99.141 20.9908 98.2872 21.1875 97.3159 21.1875C96.2193 21.1875 95.2167 20.9042 94.3081 20.3374C93.4151 19.7707 92.7023 18.9756 92.1697 17.9523C91.6527 16.9132 91.3942 15.7246 91.3942 14.3864ZM101.64 14.4337C101.64 13.6308 101.483 12.9459 101.17 12.3792C100.856 11.7967 100.433 11.3559 99.9008 11.0567C99.3681 10.7419 98.7963 10.5844 98.1854 10.5844C97.5744 10.5844 97.0104 10.734 96.4935 11.0331C95.9765 11.3322 95.5535 11.773 95.2245 12.3555C94.9112 12.9223 94.7545 13.5993 94.7545 14.3864C94.7545 15.1736 94.9112 15.8663 95.2245 16.4646C95.5535 17.0471 95.9765 17.4957 96.4935 17.8106C97.0261 18.1255 97.5901 18.2829 98.1854 18.2829C98.7963 18.2829 99.3681 18.1333 99.9008 17.8342C100.433 17.5194 100.856 17.0785 101.17 16.5118C101.483 15.9293 101.64 15.2366 101.64 14.4337Z" fill="#1572D3"/>
<path d="M111.456 9.92321C111.879 9.2305 112.427 8.68736 113.101 8.29378C113.79 7.90019 114.573 7.7034 115.451 7.7034V11.1748H114.581C113.547 11.1748 112.764 11.4188 112.231 11.9069C111.714 12.3949 111.456 13.245 111.456 14.4573V20.975H108.166V7.89232H111.456V9.92321Z" fill="#1572D3"/>
<path d="M71.1202 30.114C70.7442 29.4213 70.2273 28.8939 69.5693 28.5318C68.9113 28.1697 68.1437 27.9887 67.2664 27.9887C66.2951 27.9887 65.4335 28.2091 64.6815 28.6499C63.9296 29.0907 63.3421 29.7204 62.9191 30.5391C62.4961 31.3577 62.2846 32.3023 62.2846 33.3729C62.2846 34.4749 62.4961 35.4353 62.9191 36.2539C63.3578 37.0726 63.9609 37.7023 64.7285 38.1431C65.4962 38.5839 66.3891 38.8043 67.4074 38.8043C68.6607 38.8043 69.6868 38.4737 70.4857 37.8125C71.2847 37.1355 71.8095 36.1988 72.0602 35.0023H66.4204V32.4755H75.303V35.3565C75.0837 36.5058 74.6137 37.5685 73.8931 38.5446C73.1724 39.5206 72.2403 40.3078 71.0967 40.9061C69.9688 41.4886 68.6998 41.7798 67.2899 41.7798C65.7076 41.7798 64.2742 41.4256 62.9896 40.7171C61.7207 39.9929 60.7181 38.9932 59.9818 37.718C59.2611 36.4428 58.9008 34.9944 58.9008 33.3729C58.9008 31.7513 59.2611 30.3029 59.9818 29.0277C60.7181 27.7368 61.7207 26.7371 62.9896 26.0286C64.2742 25.3044 65.6998 24.9423 67.2664 24.9423C69.115 24.9423 70.7207 25.3989 72.0837 26.312C73.4466 27.2094 74.3866 28.4767 74.9035 30.114H71.1202Z" fill="#1572D3"/>
<path d="M76.891 35.0495C76.891 33.7271 77.1495 32.5542 77.6665 31.5309C78.1991 30.5076 78.9119 29.7204 79.8049 29.1694C80.7135 28.6184 81.7239 28.3429 82.8362 28.3429C83.8075 28.3429 84.6535 28.5397 85.3741 28.9333C86.1104 29.3268 86.6979 29.8228 87.1365 30.421V28.5554H90.4498V41.6381H87.1365V39.7253C86.7135 40.3393 86.1261 40.851 85.3741 41.2603C84.6378 41.6539 83.784 41.8507 82.8127 41.8507C81.7161 41.8507 80.7135 41.5673 79.8049 41.0005C78.9119 40.4338 78.1991 39.6387 77.6665 38.6154C77.1495 37.5763 76.891 36.3877 76.891 35.0495ZM87.1365 35.0968C87.1365 34.2939 86.9799 33.609 86.6665 33.0423C86.3532 32.4598 85.9302 32.019 85.3976 31.7198C84.865 31.405 84.2932 31.2475 83.6822 31.2475C83.0712 31.2475 82.5072 31.3971 81.9903 31.6962C81.4733 31.9953 81.0503 32.4361 80.7213 33.0187C80.408 33.5854 80.2514 34.2624 80.2514 35.0495C80.2514 35.8367 80.408 36.5294 80.7213 37.1277C81.0503 37.7102 81.4733 38.1588 81.9903 38.4737C82.5229 38.7886 83.0869 38.946 83.6822 38.946C84.2932 38.946 84.865 38.7964 85.3976 38.4973C85.9302 38.1825 86.3532 37.7416 86.6665 37.1749C86.9799 36.5924 87.1365 35.8997 87.1365 35.0968Z" fill="#1572D3"/>
<path d="M96.9528 30.5863C97.3758 29.8936 97.9241 29.3505 98.5977 28.9569C99.287 28.5633 100.07 28.3665 100.948 28.3665V31.8379H100.078C99.0442 31.8379 98.2609 32.0819 97.7282 32.57C97.2113 33.058 96.9528 33.9081 96.9528 35.1204V41.6381H93.6629V28.5554H96.9528V30.5863Z" fill="#1572D3"/>
<path d="M102.317 35.0495C102.317 33.7271 102.576 32.5542 103.093 31.5309C103.626 30.5076 104.346 29.7204 105.255 29.1694C106.163 28.6184 107.174 28.3429 108.286 28.3429C109.132 28.3429 109.939 28.5318 110.707 28.9096C111.474 29.2717 112.085 29.7598 112.539 30.3738V24.163H115.876V41.6381H112.539V39.7017C112.132 40.3472 111.56 40.8667 110.824 41.2603C110.088 41.6539 109.234 41.8507 108.263 41.8507C107.166 41.8507 106.163 41.5673 105.255 41.0005C104.346 40.4338 103.626 39.6387 103.093 38.6154C102.576 37.5763 102.317 36.3877 102.317 35.0495ZM112.563 35.0968C112.563 34.2939 112.406 33.609 112.093 33.0423C111.78 32.4598 111.357 32.019 110.824 31.7198C110.291 31.405 109.72 31.2475 109.109 31.2475C108.498 31.2475 107.934 31.3971 107.417 31.6962C106.9 31.9953 106.477 32.4361 106.148 33.0187C105.834 33.5854 105.678 34.2624 105.678 35.0495C105.678 35.8367 105.834 36.5294 106.148 37.1277C106.477 37.7102 106.9 38.1588 107.417 38.4737C107.949 38.7886 108.513 38.946 109.109 38.946C109.72 38.946 110.291 38.7964 110.824 38.4973C111.357 38.1825 111.78 37.7416 112.093 37.1749C112.406 36.5924 112.563 35.8997 112.563 35.0968Z" fill="#1572D3"/>
<path d="M131.191 34.8134C131.191 35.2857 131.16 35.7108 131.097 36.0886H121.58C121.659 37.0332 121.988 37.7731 122.567 38.3084C123.147 38.8437 123.86 39.1113 124.706 39.1113C125.928 39.1113 126.797 38.5839 127.314 37.5291H130.862C130.486 38.7886 129.766 39.8276 128.7 40.6463C127.635 41.4492 126.327 41.8507 124.776 41.8507C123.523 41.8507 122.395 41.5751 121.392 41.0241C120.405 40.4574 119.63 39.6623 119.066 38.639C118.518 37.6157 118.243 36.435 118.243 35.0968C118.243 33.7428 118.518 32.5542 119.066 31.5309C119.614 30.5076 120.382 29.7204 121.369 29.1694C122.356 28.6184 123.492 28.3429 124.776 28.3429C126.014 28.3429 127.118 28.6105 128.089 29.1458C129.076 29.6811 129.836 30.4446 130.369 31.4364C130.917 32.4125 131.191 33.5382 131.191 34.8134ZM127.784 33.8688C127.768 33.0187 127.463 32.3417 126.868 31.8379C126.272 31.3184 125.544 31.0586 124.682 31.0586C123.868 31.0586 123.178 31.3105 122.614 31.8143C122.066 32.3023 121.729 32.9872 121.604 33.8688H127.784Z" fill="#1572D3"/>
<path d="M140.807 28.3665C142.358 28.3665 143.611 28.8624 144.567 29.8542C145.522 30.8303 146 32.2 146 33.9632V41.6381H142.71V34.4119C142.71 33.3729 142.452 32.5778 141.935 32.0268C141.418 31.4601 140.713 31.1767 139.82 31.1767C138.911 31.1767 138.191 31.4601 137.658 32.0268C137.141 32.5778 136.882 33.3729 136.882 34.4119V41.6381H133.593V28.5554H136.882V30.1849C137.321 29.6181 137.877 29.1773 138.551 28.8624C139.24 28.5318 139.992 28.3665 140.807 28.3665Z" fill="#1572D3"/>
</svg>
