<svg width="19" height="22" viewBox="0 0 19 22" fill="none" xmlns="http://www.w3.org/2000/svg">
<g clip-path="url(#clip0_185_4175)">
<path d="M11.1872 8.39819V9.72629C11.1872 10.0002 11.002 10.2243 10.7756 10.2243H8.85494V12.5485C8.85494 12.8224 8.66973 13.0465 8.44337 13.0465H7.34585C7.11949 13.0465 6.93428 12.8224 6.93428 12.5485V10.2243H5.01362C4.78726 10.2243 4.60205 10.0002 4.60205 9.72629V8.39819C4.60205 8.12426 4.78726 7.90015 5.01362 7.90015H6.93428V5.57597C6.93428 5.30204 7.11949 5.07793 7.34585 5.07793H8.44337C8.66973 5.07793 8.85494 5.30204 8.85494 5.57597V7.90015H10.7756C11.002 7.90015 11.1872 8.12426 11.1872 8.39819ZM18.0809 20.2142L17.1103 21.3887C16.7879 21.7788 16.2666 21.7788 15.9476 21.3887L12.5248 17.2508C12.3704 17.0641 12.2847 16.8109 12.2847 16.5453V15.8688C11.074 17.0143 9.55117 17.6949 7.89461 17.6949C3.95383 17.6949 0.760742 13.831 0.760742 9.06224C0.760742 4.29352 3.95383 0.429565 7.89461 0.429565C11.8354 0.429565 15.0285 4.29352 15.0285 9.06224C15.0285 11.0668 14.466 12.9096 13.5194 14.3747H14.0784C14.2979 14.3747 14.5072 14.4784 14.6615 14.6652L18.0809 18.803C18.3999 19.1932 18.3999 19.824 18.0809 20.2142ZM12.5591 9.06224C12.5591 5.94119 10.4738 3.4178 7.89461 3.4178C5.31544 3.4178 3.23016 5.94119 3.23016 9.06224C3.23016 12.1833 5.31544 14.7067 7.89461 14.7067C10.4738 14.7067 12.5591 12.1833 12.5591 9.06224Z" fill="#E0E0E0"/>
</g>
<defs>
<clipPath id="clip0_185_4175">
<rect width="17.5603" height="21.2497" fill="white" transform="translate(0.760742 0.429565)"/>
</clipPath>
</defs>
</svg>
